<?xml version="1.0" encoding="UTF-8" standalone="no"?>
<svg
   xmlns:dc="http://purl.org/dc/elements/1.1/"
   xmlns:cc="http://creativecommons.org/ns#"
   xmlns:rdf="http://www.w3.org/1999/02/22-rdf-syntax-ns#"
   xmlns:svg="http://www.w3.org/2000/svg"
   xmlns="http://www.w3.org/2000/svg"
   version="1.1"
   id="svg2"
   viewBox="0 0 40 28"
   height="28"
   width="40">
  <defs
     id="defs4" />
  <metadata
     id="metadata7">
    <rdf:RDF>
      <cc:Work
         rdf:about="">
        <dc:format>image/svg+xml</dc:format>
        <dc:type
           rdf:resource="http://purl.org/dc/dcmitype/StillImage" />
        <dc:title></dc:title>
      </cc:Work>
    </rdf:RDF>
  </metadata>
  <g
     transform="translate(0,-1024.3622)"
     id="layer1">
    <rect
       y="1025.3623"
       x="1"
       height="26"
       width="38"
       id="rect4138"
       style="opacity:1;fill:none;fill-opacity:1;stroke:#7eb977;stroke-width:2;stroke-linecap:butt;stroke-miterlimit:4;stroke-dasharray:none;stroke-dashoffset:0;stroke-opacity:1" />
    <g
       id="text4140"
       style="font-style:normal;font-weight:normal;font-size:25px;line-height:125%;font-family:sans-serif;letter-spacing:-1.70999992px;word-spacing:0px;opacity:0.9;fill:#7eb977;fill-opacity:1;stroke:none;stroke-width:1px;stroke-linecap:butt;stroke-linejoin:miter;stroke-opacity:1">
      <path
         id="path4145"
         style=""
         d="m 6.5427637,1044.5389 2.4780274,0 0,3.1006 -2.4780274,0 0,-3.1006 z m 2.4047852,-1.7944 -2.331543,0 0,-1.8799 q 0,-1.2329 0.3417969,-2.0263 0.3417968,-0.7935 1.4404297,-1.8433 l 1.0986328,-1.0864 q 0.6958007,-0.647 1.0009767,-1.2207 0.317383,-0.5738 0.317383,-1.1719 0,-1.0864 -0.805664,-1.7578 -0.7934574,-0.6714 -2.1118168,-0.6714 -0.9643555,0 -2.0629883,0.4272 -1.0864258,0.4273 -2.2705078,1.2452 l 0,-2.295 q 1.1474609,-0.6958 2.3193359,-1.0376 1.1840821,-0.3418 2.4414063,-0.3418 2.2460937,0 3.6010737,1.1841 1.367188,1.1841 1.367188,3.125 0,0.9278 -0.439453,1.77 -0.439453,0.8301 -1.538086,1.8799 l -1.074219,1.0498 q -0.5737303,0.5738 -0.8178709,0.9033 -0.2319336,0.3174 -0.3295899,0.6226 -0.073242,0.2564 -0.1098632,0.6226 -0.036621,0.3662 -0.036621,1.0009 l 0,1.5015 z" />
      <path
         id="path4147"
         style=""
         d="m 18.114014,1044.5389 2.478027,0 0,3.1006 -2.478027,0 0,-3.1006 z m 2.404785,-1.7944 -2.331543,0 0,-1.8799 q 0,-1.2329 0.341797,-2.0263 0.341797,-0.7935 1.440429,-1.8433 l 1.098633,-1.0864 q 0.695801,-0.647 1.000977,-1.2207 0.317383,-0.5738 0.317383,-1.1719 0,-1.0864 -0.805664,-1.7578 -0.793457,-0.6714 -2.111817,-0.6714 -0.964355,0 -2.062988,0.4272 -1.086426,0.4273 -2.270508,1.2452 l 0,-2.295 q 1.147461,-0.6958 2.319336,-1.0376 1.184082,-0.3418 2.441406,-0.3418 2.246094,0 3.601074,1.1841 1.367188,1.1841 1.367188,3.125 0,0.9278 -0.439453,1.77 -0.439453,0.8301 -1.538086,1.8799 l -1.074219,1.0498 q -0.57373,0.5738 -0.817871,0.9033 -0.231934,0.3174 -0.32959,0.6226 -0.07324,0.2564 -0.109863,0.6226 -0.03662,0.3662 -0.03662,1.0009 l 0,1.5015 z" />
      <path
         id="path4149"
         style=""
         d="m 29.685264,1044.5389 2.478027,0 0,3.1006 -2.478027,0 0,-3.1006 z m 2.404785,-1.7944 -2.331543,0 0,-1.8799 q 0,-1.2329 0.341797,-2.0263 0.341797,-0.7935 1.440429,-1.8433 l 1.098633,-1.0864 q 0.695801,-0.647 1.000977,-1.2207 0.317383,-0.5738 0.317383,-1.1719 0,-1.0864 -0.805664,-1.7578 -0.793458,-0.6714 -2.111817,-0.6714 -0.964355,0 -2.062988,0.4272 -1.086426,0.4273 -2.270508,1.2452 l 0,-2.295 q 1.147461,-0.6958 2.319336,-1.0376 1.184082,-0.3418 2.441406,-0.3418 2.246094,0 3.601074,1.1841 1.367188,1.1841 1.367188,3.125 0,0.9278 -0.439453,1.77 -0.439453,0.8301 -1.538086,1.8799 l -1.074219,1.0498 q -0.57373,0.5738 -0.817871,0.9033 -0.231934,0.3174 -0.32959,0.6226 -0.07324,0.2564 -0.109863,0.6226 -0.03662,0.3662 -0.03662,1.0009 l 0,1.5015 z" />
    </g>
  </g>
</svg>
